:FULLY-SPECIFIED
:FORCE-ALL-JOINTS-BE-3DOF
:DEGREES
114
root 9.29151 16.3075 -21.3151 4.04032 3.46372 3.87247
lfemur 11.557 2.7775 -25.0993
ltibia 19.8408 0 0
lfoot -6.88524 3.93077 0
ltoes -2.34183 0 0
rfemur -41.0421 4.299 14.0966
rtibia 41.9715 0 0
rfoot -16.9968 -7.62102 0
rtoes -16.2385 0 0
lowerback -6.9591 -3.33795 -4.16582
upperback -0.716266 -4.19232 2.17016
thorax 3.54918 -2.16764 4.20117
lowerneck -20.4406 -5.38455 -13.3154
upperneck 19.6154 -6.14608 11.651
head 10.4558 -2.50123 5.47799
lclavicle -4.94187e-16 -7.25401e-15 0
lhumerus -23.2739 -16.0571 86.8453
lradius 31.7675 0 0
lwrist 1.92112 0 0
lhand -11.9327 -23.7816 0
lfingers 7.12502 0 0
lthumb 14.1173 5.6511 0
rclavicle -4.94187e-16 -7.25401e-15 0
rhumerus -46.693 8.48681 -85.3702
rradius 32.1247 0 0
rwrist -18.04 0 0
rhand -29.3981 -22.9336 0
rfingers 7.12502 0 0
rthumb -2.73628 -52.9003 0
115
root 9.27348 16.3069 -21.1638 4.12649 3.74353 3.83665
lfemur 12.1641 2.98226 -24.7245
ltibia 20.312 0 0
lfoot -6.06515 3.81338 0
ltoes -2.39169 0 0
rfemur -41.3478 4.17446 14.1691
rtibia 42.1204 0 0
rfoot -16.6847 -7.51933 0
rtoes -16.179 0 0
lowerback -6.91906 -3.39398 -4.13855
upperback -0.752008 -4.27058 2.19913
thorax 3.4942 -2.20501 4.21196
lowerneck -20.4641 -5.41092 -13.3498
upperneck 19.5381 -6.17486 11.7012
head 10.4401 -2.5101 5.49536
lclavicle 1.37854e-15 -7.9941e-15 0
lhumerus -23.5879 -15.3557 86.7906
lradius 31.2032 0 0
lwrist 1.1833 0 0
lhand -11.6473 -23.6151 0
lfingers 7.12502 0 0
lthumb 14.3922 5.79552 0
rclavicle 1.37854e-15 -7.9941e-15 0
rhumerus -46.8349 8.31741 -85.2472
rradius 31.7668 0 0
rwrist -17.8398 0 0
rhand -29.3889 -22.8621 0
rfingers 7.12502 0 0
rthumb -2.72738 -52.8292 0
116
root 9.2545 16.306 -21.0116 4.2132 4.01765 3.7961
lfemur 12.726 3.18278 -24.3504
ltibia 20.779 0 0
lfoot -5.2642 3.70227 0
ltoes -2.44912 0 0
rfemur -41.6207 4.05254 14.251
rtibia 42.2481 0 0
rfoot -16.379 -7.41163 0
rtoes -16.1148 0 0
lowerback -6.87882 -3.4457 -4.10772
upperback -0.787174 -4.34333 2.22843
thorax 3.43935 -2.23962 4.2215
lowerneck -20.4844 -5.4376 -13.3842
upperneck 19.459 -6.20458 11.7527
head 10.4235 -2.51942 5.51309
lclavicle 3.21003e-15 -8.72251e-15 0
lhumerus -23.9137 -14.6624 86.7428
lradius 30.6461 0 0
lwrist 0.463091 0 0
lhand -11.3672 -23.4518 0
lfingers 7.12502 0 0
lthumb 14.6619 5.93721 0
rclavicle 3.21003e-15 -8.72251e-15 0
rhumerus -46.9673 8.15258 -85.1235
rradius 31.4278 0 0
rwrist -17.6489 0 0
rhand -29.3825 -22.7965 0
rfingers 7.12502 0 0
rthumb -2.72119 -52.7639 0
117
root 9.23463 16.3049 -20.8585 4.30037 4.28604 3.75101
lfemur 13.2438 3.37902 -23.9772
ltibia 21.2416 0 0
lfoot -4.48244 3.59731 0
ltoes -2.51383 0 0
rfemur -41.8618 3.93326 14.342
rtibia 42.355 0 0
rfoot -16.0795 -7.29818 0
rtoes -16.0463 0 0
lowerback -6.83842 -3.49321 -4.07346
upperback -0.821755 -4.41071 2.25802
thorax 3.38466 -2.27152 4.22984
lowerneck -20.5018 -5.46455 -13.4188
upperneck 19.3782 -6.2352 11.8057
head 10.4059 -2.52914 5.53115
lclavicle 5.00006e-15 -9.43901e-15 0
lhumerus -24.2507 -13.9775 86.7017
lradius 30.0963 0 0
lwrist -0.239464 0 0
lhand -11.0926 -23.2918 0
lfingers 7.12502 0 0
lthumb 14.9263 6.07615 0
rclavicle 5.00006e-15 -9.43901e-15 0
rhumerus -47.0903 7.99233 -84.9991
rradius 31.1075 0 0
rwrist -17.4671 0 0
rhand -29.3788 -22.7367 0
rfingers 7.12502 0 0
rthumb -2.71763 -52.7043 0
118
root 9.21392 16.3035 -20.7046 4.38791 4.54865 3.70157
lfemur 13.7185 3.57096 -23.6052
ltibia 21.6994 0 0
lfoot -3.71992 3.49841 0
ltoes -2.58554 0 0
rfemur -42.0719 3.81662 14.4417
rtibia 42.4419 0 0
rfoot -15.7865 -7.17929 0
rtoes -15.9736 0 0
lowerback -6.79791 -3.53661 -4.03591
upperback -0.85574 -4.47282 2.28789
thorax 3.33017 -2.30078 4.23699
lowerneck -20.5162 -5.49174 -13.4533
upperneck 19.2959 -6.26666 11.8598
head 10.3875 -2.53926 5.54951
lclavicle 6.74845e-15 -1.01434e-14 0
lhumerus -24.5982 -13.3013 86.6672
lradius 29.5541 0 0
lwrist -0.924333 0 0
lhand -10.8235 -23.135 0
lfingers 7.12502 0 0
lthumb 15.1854 6.21229 0
rclavicle 6.74845e-15 -1.01434e-14 0
rhumerus -47.2042 7.83664 -84.8742
rradius 30.8055 0 0
rwrist -17.2941 0 0
rhand -29.3777 -22.6826 0
rfingers 7.12502 0 0
rthumb -2.71661 -52.6503 0
119
root 9.19243 16.302 -20.5499 4.47573 4.80543 3.64795
lfemur 14.1509 3.75856 -23.2347
ltibia 22.1522 0 0
lfoot -2.9767 3.40545 0
ltoes -2.66394 0 0
rfemur -42.2517 3.70266 14.5497
rtibia 42.5093 0 0
rfoot -15.4999 -7.05522 0
rtoes -15.8969 0 0
lowerback -6.75733 -3.57599 -3.99522
upperback -0.889116 -4.52978 2.31798
thorax 3.27593 -2.32744 4.243
lowerneck -20.5277 -5.51914 -13.4878
upperneck 19.2122 -6.2989 11.9151
head 10.3684 -2.54974 5.56815
lclavicle 8.45498e-15 -1.08354e-14 0
lhumerus -24.9555 -12.6341 86.639
lradius 29.0196 0 0
lwrist -1.59148 0 0
lhand -10.56 -22.9815 0
lfingers 7.12502 0 0
lthumb 15.4391 6.34563 0
rclavicle 8.45498e-15 -1.08354e-14 0
rhumerus -47.3091 7.68551 -84.7489
rradius 30.5216 0 0
rwrist -17.13 0 0
rhand -29.3792 -22.6339 0
rfingers 7.12502 0 0
rthumb -2.71805 -52.6018 0
120
root 9.17023 16.3003 -20.3946 4.56374 5.05634 3.59035
lfemur 14.5422 3.94181 -22.8661
ltibia 22.5998 0 0
lfoot -2.25282 3.31832 0
ltoes -2.74875 0 0
rfemur -42.4022 3.59138 14.6657
rtibia 42.5577 0 0
rfoot -15.2198 -6.92628 0
rtoes -15.8164 0 0
lowerback -6.7167 -3.61144 -3.95153
upperback -0.921874 -4.58171 2.34826
thorax 3.22197 -2.35158 4.2479
lowerneck -20.5365 -5.54672 -13.5223
upperneck 19.1272 -6.33187 11.9714
head 10.3484 -2.56057 5.58705
lclavicle 1.01195e-14 -1.15148e-14 0
lhumerus -25.322 -11.9763 86.617
lradius 28.4932 0 0
lwrist -2.24087 0 0
lhand -10.3022 -22.8312 0
lfingers 7.12502 0 0
lthumb 15.6875 6.47611 0
rclavicle 1.01195e-14 -1.15148e-14 0
rhumerus -47.4053 7.53891 -84.6233
rradius 30.2553 0 0
rwrist -16.9746 0 0
rhand -29.3832 -22.5907 0
rfingers 7.12502 0 0
rthumb -2.72187 -52.5586 0
121
root 9.14737 16.2985 -20.2386 4.65184 5.30133 3.52895
lfemur 14.8934 4.12065 -22.4995
ltibia 23.0419 0 0
lfoot -1.54835 3.23692 0
ltoes -2.83968 0 0
rfemur -42.5242 3.48281 14.7893
rtibia 42.5877 0 0
rfoot -14.9463 -6.79273 0
rtoes -15.7323 0 0
lowerback -6.67608 -3.64307 -3.90497
upperback -0.954003 -4.62872 2.37871
thorax 3.16835 -2.37326 4.25171
lowerneck -20.5427 -5.57445 -13.5567
upperneck 19.0411 -6.36551 12.0287
head 10.3277 -2.57173 5.60617
lclavicle 1.17417e-14 -1.21813e-14 0
lhumerus -25.6971 -11.3281 86.601
lradius 27.9751 0 0
lwrist -2.87247 0 0
lhand -10.05 -22.6844 0
lfingers 7.12502 0 0
lthumb 15.9303 6.60371 0
rclavicle 1.17417e-14 -1.21813e-14 0
rhumerus -47.4929 7.39685 -84.4976
rradius 30.0064 0 0
rwrist -16.8277 0 0
rhand -29.3895 -22.5527 0
rfingers 7.12502 0 0
rthumb -2.72798 -52.5205 0
122
root 9.1239 16.2965 -20.0821 4.73995 5.54035 3.46395
lfemur 15.2052 4.29506 -22.1353
ltibia 23.4782 0 0
lfoot -0.863337 3.16113 0
ltoes -2.93642 0 0
rfemur -42.6184 3.37696 14.9201
rtibia 42.6 0 0
rfoot -14.6794 -6.65487 0
rtoes -15.6449 0 0
lowerback -6.63551 -3.67097 -3.8557
upperback -0.985491 -4.67094 2.40927
thorax 3.1151 -2.39252 4.25448
lowerneck -20.5462 -5.60229 -13.591
upperneck 18.954 -6.39976 12.0868
head 10.3063 -2.58318 5.62549
lclavicle 1.33214e-14 -1.28348e-14 0
lhumerus -26.0801 -10.69 86.5908
lradius 27.4656 0 0
lwrist -3.48625 0 0
lhand -9.80357 -22.5409 0
lfingers 7.12502 0 0
lthumb 16.1676 6.72841 0
rclavicle 1.33214e-14 -1.28348e-14 0
rhumerus -47.5722 7.25931 -84.3718
rradius 29.7745 0 0
rwrist -16.6891 0 0
rhand -29.3981 -22.5198 0
rfingers 7.12502 0 0
rthumb -2.73632 -52.4876 0
123
root 9.09989 16.2944 -19.9251 4.82798 5.77336 3.39552
lfemur 15.4789 4.46502 -21.7738
ltibia 23.9085 0 0
lfoot -0.197833 3.09085 0
ltoes -3.03869 0 0
rfemur -42.6857 3.27386 15.0578
rtibia 42.5951 0 0
rfoot -14.4192 -6.51299 0
rtoes -15.5542 0 0
lowerback -6.59502 -3.69522 -3.80384
upperback -1.01633 -4.70847 2.43993
thorax 3.06226 -2.40944 4.25622
lowerneck -20.5472 -5.63021 -13.6251
upperneck 18.8659 -6.43458 12.1458
head 10.2843 -2.59492 5.64499
lclavicle 1.48585e-14 -1.3475e-14 0
lhumerus -26.4703 -10.0621 86.5862
lradius 26.9647 0 0
lwrist -4.08216 0 0
lhand -9.56299 -22.4009 0
lfingers 7.12502 0 0
lthumb 16.3993 6.85016 0
rclavicle 1.48585e-14 -1.3475e-14 0
rhumerus -47.6433 7.12629 -84.2462
rradius 29.5593 0 0
rwrist -16.5588 0 0
rhand -29.409 -22.4919 0
rfingers 7.12502 0 0
rthumb -2.74678 -52.4595 0
124
root 9.07539 16.2922 -19.7677 4.91583 6.00031 3.32385
lfemur 15.7153 4.63049 -21.4153
ltibia 24.3326 0 0
lfoot 0.448105 3.02597 0
ltoes -3.1462 0 0
rfemur -42.727 3.17351 15.2019
rtibia 42.5735 0 0
rfoot -14.1656 -6.36735 0
rtoes -15.4606 0 0
lowerback -6.55465 -3.71594 -3.74954
upperback -1.0465 -4.74144 2.47063
thorax 3.00987 -2.42408 4.25698
lowerneck -20.5457 -5.65818 -13.6591
upperneck 18.7771 -6.4699 12.2054
head 10.2618 -2.60692 5.66463
lclavicle 1.63527e-14 -1.41016e-14 0
lhumerus -26.867 -9.44493 86.5871
lradius 26.4729 0 0
lwrist -4.66017 0 0
lhand -9.32828 -22.2642 0
lfingers 7.12502 0 0
lthumb 16.6253 6.96895 0
rclavicle 1.63527e-14 -1.41016e-14 0
rhumerus -47.7065 6.99776 -84.1208
rradius 29.3605 0 0
rwrist -16.4367 0 0
rhand -29.4219 -22.4688 0
rfingers 7.12502 0 0
rthumb -2.7593 -52.4363 0
125
root 9.05047 16.2899 -19.6099 5.00342 6.22116 3.24913
lfemur 15.9155 4.79143 -21.0601
ltibia 24.7502 0 0
lfoot 1.07442 2.96637 0
ltoes -3.25865 0 0
rfemur -42.743 3.07594 15.3521
rtibia 42.5359 0 0
rfoot -13.9189 -6.21826 0
rtoes -15.3642 0 0
lowerback -6.51445 -3.73321 -3.69294
upperback -1.076 -4.76995 2.50135
thorax 2.95799 -2.43649 4.25679
lowerneck -20.5419 -5.68617 -13.6929
upperneck 18.6876 -6.50567 12.2657
head 10.2386 -2.61916 5.68439
lclavicle 1.78038e-14 -1.47144e-14 0
lhumerus -27.2698 -8.83869 86.5932
lradius 25.9903 0 0
lwrist -5.22026 0 0
lhand -9.09951 -22.1311 0
lfingers 7.12502 0 0
lthumb 16.8456 7.08473 0
rclavicle 1.78038e-14 -1.47144e-14 0
rhumerus -47.7618 6.87374 -83.9958
rradius 29.1778 0 0
rwrist -16.3225 0 0
rhand -29.4369 -22.4504 0
rfingers 7.12502 0 0
rthumb -2.77379 -52.4176 0
126
root 9.02517 16.2876 -19.4518 5.09065 6.43586 3.17154
lfemur 16.0804 4.94782 -20.7084
ltibia 25.161 0 0
lfoot 1.68107 2.91195 0
ltoes -3.37575 0 0
rfemur -42.7345 2.98116 15.5081
rtibia 42.4828 0 0
rfoot -13.6789 -6.06599 0
rtoes -15.2653 0 0
lowerback -6.47446 -3.74713 -3.63418
upperback -1.10482 -4.79413 2.53206
thorax 2.90664 -2.44673 4.25568
lowerneck -20.5359 -5.71415 -13.7264
upperneck 18.5976 -6.54183 12.3265
head 10.215 -2.63161 5.70425
lclavicle 1.92116e-14 -1.53133e-14 0
lhumerus -27.6777 -8.24374 86.6045
lradius 25.5172 0 0
lwrist -5.76237 0 0
lhand -8.87675 -22.0015 0
lfingers 7.12502 0 0
lthumb 17.0601 7.19747 0
rclavicle 1.92116e-14 -1.53133e-14 0
rhumerus -47.8096 6.7542 -83.8713
rradius 29.0107 0 0
rwrist -16.2161 0 0
rhand -29.4539 -22.4366 0
rfingers 7.12502 0 0
rthumb -2.79016 -52.4035 0
